<?xml version="1.0" standalone="no"?>
<!DOCTYPE svg PUBLIC "-//W3C//DTD SVG 20010904//EN"
 "http://www.w3.org/TR/2001/REC-SVG-20010904/DTD/svg10.dtd">
<svg version="1.0" xmlns="http://www.w3.org/2000/svg"
 width="3508.000000pt" height="2481.000000pt" viewBox="0 0 3508.000000 2481.000000"
 preserveAspectRatio="xMidYMid meet">
<metadata>
Created by potrace 1.16, written by Peter Selinger 2001-2019
</metadata>
<g transform="translate(0.000000,2481.000000) scale(0.100000,-0.100000)"
fill="#000000" stroke="none">
<path d="M16470 14335 l0 -115 196 0 c183 0 196 -1 189 -17 -59 -135 -64 -237
-65 -1160 l0 -733 194 0 194 0 11 63 c6 34 13 81 17 105 l7 42 -78 0 -77 0 5
728 c4 789 4 790 61 886 16 27 43 55 66 68 l40 23 0 113 0 112 -380 0 -380 0
0 -115z"/>
<path d="M18610 14343 c0 -16 -16 -356 -35 -758 -19 -401 -35 -750 -35 -775 0
-26 -4 -40 -9 -35 -5 6 -69 209 -142 453 l-133 442 -96 0 -96 0 -133 -442
c-125 -414 -151 -492 -151 -442 0 34 -60 828 -66 862 l-5 32 -179 0 -180 0 0
-110 0 -110 55 0 55 0 1 -37 c0 -21 17 -279 37 -573 l37 -535 166 -3 167 -2
19 62 c173 562 268 858 273 858 5 0 97 -291 267 -842 l24 -78 164 0 c163 0
165 0 169 23 4 21 97 1965 96 2015 0 22 -2 22 -135 22 l-135 0 0 -27z"/>
<path d="M20320 14348 c0 -13 -16 -351 -35 -753 -19 -401 -35 -752 -35 -778 0
-27 -4 -46 -8 -43 -4 2 -68 205 -142 450 l-135 446 -96 0 -96 0 -133 -442
c-116 -387 -151 -491 -150 -452 1 22 -61 842 -66 872 l-5 32 -179 0 -180 0 0
-110 0 -110 55 0 c38 0 55 -4 55 -12 -1 -7 16 -266 37 -575 l38 -563 166 0
166 0 108 348 c59 191 125 401 145 466 20 65 39 115 42 110 3 -5 51 -157 107
-339 57 -181 120 -387 142 -457 l40 -128 164 0 164 0 5 43 c5 39 97 1944 96
1995 0 22 -2 22 -135 22 -133 0 -135 0 -135 -22z"/>
<path d="M19470 14260 l0 -100 70 0 c39 0 70 -3 70 -7 0 -8 -34 -70 -72 -131
l-20 -32 327 2 327 3 43 105 43 105 -229 3 -229 2 25 66 c14 37 25 70 25 75 0
5 -85 9 -190 9 l-190 0 0 -100z"/>
<path d="M23795 13690 c-252 -21 -385 -125 -430 -335 -12 -56 -15 -166 -15
-562 l0 -493 135 0 135 0 0 188 c1 248 10 285 90 340 30 20 44 22 166 22 l134
0 0 121 0 121 -142 -4 c-135 -3 -146 -5 -190 -30 -26 -16 -50 -28 -54 -28 -11
0 3 271 17 310 35 100 94 133 244 134 58 1 120 -5 148 -13 63 -18 111 -72 126
-140 7 -34 11 -220 11 -536 l0 -485 141 0 140 0 -3 513 c-5 566 -6 576 -71
686 -87 147 -292 214 -582 191z"/>
<path d="M13635 13684 c-59 -7 -253 -42 -310 -57 l-50 -13 -3 -652 -2 -652
140 0 140 0 0 564 0 564 23 6 c49 14 265 29 318 22 63 -8 110 -33 136 -73 17
-25 18 -66 21 -555 l3 -528 140 0 140 0 -3 538 c-3 480 -5 543 -21 589 -35
105 -122 188 -235 224 -56 18 -95 22 -232 24 -91 2 -183 1 -205 -1z"/>
<path d="M28475 13683 c-134 -5 -125 4 -125 -124 l0 -112 38 7 c20 3 118 9
217 13 168 6 184 5 226 -14 83 -37 122 -115 139 -276 20 -188 7 -388 -31 -496
-24 -70 -63 -119 -120 -151 -39 -22 -55 -25 -139 -24 -52 1 -130 4 -172 8
l-78 8 0 -110 0 -110 107 -7 c363 -25 536 41 637 243 52 103 68 190 73 396 10
352 -39 537 -171 653 -106 94 -213 111 -601 96z"/>
<path d="M14603 13668 l-93 -10 0 -114 c0 -63 4 -114 8 -114 4 0 59 7 121 16
69 9 161 14 232 12 137 -4 159 -14 199 -94 l25 -49 3 -502 3 -503 140 0 139 0
0 453 c0 253 -5 489 -10 535 -24 189 -98 295 -249 353 -49 20 -77 23 -241 25
-102 1 -227 -2 -277 -8z"/>
<path d="M15888 13665 c-134 -27 -234 -102 -286 -214 -23 -48 -27 -70 -27
-151 0 -133 20 -187 99 -265 68 -67 149 -111 316 -170 128 -45 193 -85 211
-128 31 -74 4 -162 -63 -202 -29 -18 -50 -20 -173 -19 -102 0 -165 6 -232 21
l-93 20 0 -117 c0 -90 3 -119 14 -123 7 -3 76 -11 152 -18 166 -14 324 -7 417
19 124 36 218 120 249 226 17 56 16 211 -1 269 -32 109 -150 194 -407 292
-173 65 -230 121 -221 214 6 55 31 90 88 119 42 22 51 23 174 18 72 -3 169
-12 218 -19 l87 -14 0 113 0 113 -32 6 c-63 11 -264 25 -343 24 -44 0 -110 -7
-147 -14z"/>
<path d="M21000 13674 c-8 -1 -50 -6 -92 -9 l-78 -7 0 -115 0 -116 43 7 c115
19 192 25 297 26 140 0 181 -17 218 -90 22 -44 22 -45 22 -552 l0 -508 140 0
140 0 0 503 c0 535 -3 576 -51 668 -11 23 -40 60 -64 84 -89 90 -180 115 -405
114 -85 -1 -162 -3 -170 -5z"/>
<path d="M21870 13570 l0 -110 50 0 50 0 0 -423 c0 -349 3 -433 15 -482 47
-180 159 -262 375 -272 146 -8 207 9 412 115 4 2 15 -20 25 -47 l18 -51 107 0
108 0 0 690 0 690 -135 0 -135 0 0 -519 0 -519 -64 -40 c-105 -67 -203 -102
-287 -102 -61 0 -107 31 -139 95 l-25 50 -3 518 -3 517 -185 0 -184 0 0 -110z"/>
<path d="M24986 13664 c-213 -46 -333 -203 -312 -410 10 -101 33 -153 96 -215
65 -66 147 -110 322 -174 178 -66 211 -91 224 -173 9 -56 -22 -122 -72 -153
-37 -23 -48 -24 -179 -23 -101 1 -166 7 -232 21 l-93 20 0 -118 c0 -138 -17
-123 155 -139 378 -34 571 24 657 198 31 63 33 72 33 177 0 142 -15 185 -94
258 -65 60 -161 110 -341 178 -181 69 -236 138 -195 244 33 88 93 111 270 101
66 -4 157 -12 203 -19 l82 -13 0 113 0 112 -32 6 c-63 11 -264 25 -343 24 -44
0 -111 -7 -149 -15z"/>
<path d="M25720 13576 l0 -105 48 -3 47 -3 3 -577 2 -578 135 0 135 0 0 360 0
360 197 0 c230 0 261 -8 304 -83 24 -42 24 -45 27 -344 l3 -303 140 0 139 0 0
279 c0 296 -6 353 -45 438 -31 68 -124 162 -193 194 l-53 26 169 219 168 219
-165 3 c-163 3 -166 3 -183 -20 -9 -13 -75 -106 -146 -208 l-128 -185 -115 0
-114 0 -3 208 -2 207 -185 0 -185 0 0 -104z"/>
<path d="M27410 13674 c-19 -2 -77 -7 -127 -10 l-93 -6 0 -115 c0 -104 2 -114
18 -109 20 6 180 22 307 31 179 12 309 -30 353 -115 17 -34 22 -61 22 -117 l0
-73 -193 0 c-218 0 -286 -9 -373 -51 -283 -134 -317 -582 -56 -747 90 -57 198
-73 385 -55 l67 6 0 110 0 110 -32 -7 c-17 -3 -68 -9 -113 -12 -88 -7 -120 2
-162 48 -70 74 -71 223 -2 320 42 58 82 68 292 68 l187 0 0 -325 0 -325 135 0
135 0 0 503 c0 295 -5 520 -10 545 -36 152 -149 260 -325 308 -58 16 -330 28
-415 18z"/>
<path d="M29900 13570 l0 -110 80 0 80 0 0 -407 c0 -248 -4 -423 -10 -445 -14
-48 -59 -85 -116 -94 -24 -3 -47 -4 -50 -2 -2 3 -47 160 -100 349 -52 189 -97
345 -98 347 -2 1 -66 1 -143 0 l-139 -3 130 -448 c103 -354 134 -448 149 -453
10 -3 91 -6 180 -6 140 -1 171 2 229 21 118 38 205 126 227 231 7 33 11 240
11 590 l0 540 -215 0 -215 0 0 -110z"/>
<path d="M13270 11305 l0 -405 65 0 65 0 2 223 3 222 67 -155 67 -155 57 0 58
0 66 153 65 153 3 -220 2 -221 70 0 70 0 0 405 0 406 -67 -3 -66 -3 -93 -225
c-50 -123 -96 -231 -101 -239 -7 -10 -37 54 -108 227 l-99 242 -63 0 -63 0 0
-405z"/>
<path d="M17530 11305 l0 -405 65 0 65 0 0 405 0 405 -65 0 -65 0 0 -405z"/>
<path d="M20130 11305 l0 -405 240 0 240 0 0 55 0 55 -175 0 -175 0 0 130 0
130 155 0 155 0 0 50 0 50 -155 0 -155 0 0 115 0 115 175 0 175 0 0 55 0 55
-240 0 -240 0 0 -405z"/>
<path d="M20750 11305 l0 -405 65 0 65 0 0 405 0 405 -65 0 -65 0 0 -405z"/>
<path d="M25776 11702 c-2 -4 -63 -174 -135 -378 -71 -203 -134 -381 -140
-396 l-11 -28 74 0 74 0 37 110 37 110 132 0 132 0 35 -107 35 -108 72 -3 c40
-2 72 1 72 5 0 4 -63 186 -139 403 l-139 395 -65 3 c-36 2 -68 -1 -71 -6z
m115 -329 c23 -71 44 -134 47 -140 3 -10 -19 -13 -92 -13 -53 0 -96 4 -96 8 0
4 18 62 40 127 49 147 48 145 54 145 2 0 23 -57 47 -127z"/>
<path d="M27370 11305 l0 -405 65 0 65 0 0 219 0 219 47 16 c66 23 130 21 143
-3 6 -12 10 -106 10 -235 l0 -216 66 0 65 0 -3 243 c-3 234 -4 243 -26 274
-14 20 -38 37 -61 44 -39 11 -176 8 -218 -6 l-23 -7 0 131 0 131 -65 0 -65 0
0 -405z"/>
<path d="M17830 11595 l0 -65 65 0 65 0 0 65 0 65 -65 0 -65 0 0 -65z"/>
<path d="M23090 11595 l0 -65 65 0 65 0 0 65 0 65 -65 0 -65 0 0 -65z"/>
<path d="M23920 11595 l0 -65 65 0 65 0 0 65 0 65 -65 0 -65 0 0 -65z"/>
<path d="M29090 11595 l0 -65 65 0 65 0 0 65 0 65 -65 0 -65 0 0 -65z"/>
<path d="M14750 11540 l0 -80 -45 0 -45 0 0 -50 0 -50 45 0 45 0 0 -166 c0
-91 5 -185 11 -210 20 -78 78 -102 210 -89 l69 7 0 55 c0 54 0 55 -27 49 -137
-27 -133 -32 -133 185 l0 169 75 0 75 0 0 50 0 50 -75 0 -75 0 0 80 0 80 -65
0 -65 0 0 -80z"/>
<path d="M18160 11540 l0 -80 -45 0 -45 0 0 -50 0 -50 44 0 44 0 4 -187 c3
-155 6 -194 21 -220 29 -54 79 -69 193 -58 l74 7 0 55 c0 54 0 55 -27 49 -137
-27 -133 -32 -133 185 l0 169 75 0 75 0 0 50 0 50 -75 0 -75 0 0 80 0 80 -65
0 -65 0 0 -80z"/>
<path d="M22240 11540 l0 -80 -45 0 -45 0 0 -50 0 -50 45 0 45 0 0 -187 c0
-200 4 -221 50 -255 34 -25 85 -32 164 -23 l66 7 0 54 c0 30 -1 54 -3 54 -2 0
-29 -5 -61 -11 -87 -16 -86 -18 -86 187 l0 174 70 0 70 0 0 50 0 50 -70 0 -70
0 0 80 0 80 -65 0 -65 0 0 -80z"/>
<path d="M24250 11540 l0 -80 -45 0 -45 0 0 -50 0 -50 45 0 45 0 1 -177 c0
-111 5 -191 12 -212 23 -66 84 -89 201 -76 l66 7 0 54 c0 48 -2 55 -17 50 -10
-2 -37 -8 -61 -11 -71 -11 -72 -7 -72 191 l0 174 70 0 70 0 0 50 0 50 -70 0
-70 0 0 80 0 80 -65 0 -65 0 0 -80z"/>
<path d="M26960 11540 l0 -80 -45 0 -45 0 0 -50 0 -50 44 0 44 0 4 -187 c3
-168 5 -192 23 -223 25 -42 67 -59 150 -59 98 -1 105 3 105 61 l0 50 -58 -7
c-91 -10 -92 -8 -92 196 l0 169 75 0 75 0 0 50 0 50 -75 0 -75 0 0 80 0 80
-65 0 -65 0 0 -80z"/>
<path d="M29420 11540 l0 -80 -45 0 -45 0 0 -50 0 -50 44 0 44 0 4 -187 c3
-168 5 -192 23 -223 25 -42 67 -59 150 -59 98 -1 105 3 105 61 l0 50 -58 -7
c-91 -10 -92 -8 -92 196 l0 169 70 0 70 0 0 50 0 50 -70 0 -70 0 0 80 0 80
-65 0 -65 0 0 -80z"/>
<path d="M14225 11457 c-43 -20 -92 -79 -106 -129 -17 -59 -17 -232 0 -292 18
-62 72 -120 126 -135 44 -12 171 -14 253 -5 l52 7 0 55 c0 54 0 54 -27 48 -16
-3 -71 -9 -123 -12 -88 -6 -97 -5 -122 15 -26 20 -48 73 -48 114 0 15 15 17
166 17 l166 0 -4 103 c-4 114 -22 166 -71 201 -24 17 -46 21 -130 24 -70 1
-112 -2 -132 -11z m189 -107 c10 -10 20 -38 23 -64 l6 -46 -107 0 -108 0 7 33
c12 54 34 86 63 93 15 3 32 7 37 9 19 6 60 -7 79 -25z"/>
<path d="M15340 11450 c-47 -16 -56 -17 -63 -4 -5 9 -26 14 -62 14 l-55 0 0
-280 0 -280 65 0 65 0 0 211 0 210 33 13 c17 8 60 17 95 21 l62 7 0 54 0 54
-42 0 c-24 -1 -68 -9 -98 -20z"/>
<path d="M15738 11461 c-49 -16 -86 -51 -114 -106 -50 -103 -42 -304 16 -385
11 -16 37 -39 58 -52 33 -20 49 -23 147 -23 98 0 114 3 147 23 21 13 47 36 58
52 57 80 66 277 17 383 -18 40 -37 63 -67 83 -38 26 -53 29 -139 31 -53 1
-108 -2 -123 -6z m175 -102 c35 -16 49 -53 55 -141 7 -110 -4 -165 -38 -200
-24 -24 -36 -28 -83 -28 -75 0 -102 23 -118 98 -13 65 -7 194 11 233 7 15 22
32 34 37 28 14 109 15 139 1z"/>
<path d="M16425 11450 c-50 -23 -55 -24 -55 -5 0 12 -13 15 -55 15 l-55 0 0
-400 0 -400 60 0 60 0 0 115 0 115 100 0 c202 0 254 59 254 285 0 158 -26 226
-105 274 -44 27 -146 28 -204 1z m143 -103 c42 -45 54 -227 21 -301 -23 -49
-89 -67 -178 -50 l-31 7 0 157 0 158 52 26 c65 33 107 33 136 3z"/>
<path d="M17000 11454 c-89 -39 -122 -102 -128 -243 -5 -131 9 -200 51 -248
48 -54 97 -73 195 -73 122 0 179 29 225 115 19 35 22 56 22 175 0 119 -3 140
-22 175 -46 86 -103 115 -225 115 -51 -1 -96 -7 -118 -16z m192 -95 c34 -18
48 -70 48 -179 0 -153 -22 -190 -114 -190 -103 0 -126 34 -126 190 0 107 14
160 47 179 24 14 119 14 145 0z"/>
<path d="M18633 11463 c-33 -4 -33 -5 -33 -57 l0 -53 43 8 c23 4 76 8 118 9
90 0 109 -13 109 -77 l0 -41 -103 -4 c-123 -4 -160 -21 -195 -88 -19 -37 -23
-56 -19 -102 12 -140 126 -202 269 -148 63 24 58 23 58 5 0 -12 13 -15 60 -15
l60 0 0 226 c0 251 -5 275 -64 317 -28 20 -44 22 -151 23 -66 1 -135 0 -152
-3z m237 -369 l0 -55 -42 -18 c-77 -33 -96 -34 -123 -7 -32 32 -34 87 -5 116
16 16 33 20 95 20 l75 0 0 -56z"/>
<path d="M19345 11450 c-60 -24 -55 -23 -55 -5 0 12 -13 15 -60 15 l-60 0 0
-280 0 -280 65 0 65 0 2 208 3 207 54 28 c67 33 104 35 125 5 13 -19 16 -59
16 -235 l0 -213 65 0 65 0 0 199 c0 236 -9 294 -50 336 -28 27 -37 30 -108 32
-58 2 -89 -2 -127 -17z"/>
<path d="M21155 11457 c-40 -19 -90 -76 -106 -124 -17 -50 -17 -244 0 -303 16
-56 74 -114 126 -129 44 -12 171 -14 253 -5 l52 7 0 55 0 55 -32 -7 c-18 -4
-70 -10 -115 -13 -124 -9 -154 10 -169 107 l-7 40 168 0 168 0 -5 104 c-5 114
-23 164 -72 200 -23 18 -45 21 -129 24 -70 1 -112 -2 -132 -11z m189 -107 c10
-10 20 -38 23 -64 l6 -46 -107 0 -107 0 7 38 c3 20 13 47 20 59 27 43 119 51
158 13z"/>
<path d="M21752 11449 c-89 -44 -127 -141 -120 -299 7 -145 49 -216 147 -249
37 -12 172 -15 234 -5 l37 7 0 52 0 52 -57 -9 c-133 -22 -198 2 -222 81 -16
56 -14 174 5 221 25 62 57 74 176 66 l98 -7 0 49 c0 47 -1 50 -31 56 -17 3
-75 6 -128 6 -78 0 -104 -4 -139 -21z"/>
<path d="M22822 11451 c-44 -15 -55 -16 -59 -5 -3 10 -23 14 -59 14 l-54 0 0
-280 0 -280 60 0 60 0 0 209 0 209 39 15 c21 9 66 19 100 23 l61 7 0 53 0 54
-47 0 c-27 -1 -72 -9 -101 -19z"/>
<path d="M23495 11451 c-93 -42 -130 -131 -123 -300 3 -84 9 -115 26 -147 26
-52 71 -90 120 -104 41 -11 176 -13 235 -4 l37 7 0 52 0 52 -57 -9 c-177 -29
-233 17 -233 187 0 159 34 192 187 181 l93 -6 0 49 c0 59 -3 61 -145 61 -76 0
-110 -5 -140 -19z"/>
<path d="M28125 11458 c-54 -20 -83 -48 -112 -106 -26 -53 -28 -66 -28 -172 0
-103 3 -121 27 -172 39 -84 84 -111 196 -116 112 -5 167 9 212 57 44 46 60 93
67 201 6 95 -13 192 -47 240 -40 56 -85 74 -190 77 -52 1 -108 -2 -125 -9z
m179 -99 c38 -18 51 -62 51 -179 0 -158 -21 -190 -124 -190 -66 0 -96 25 -110
91 -23 108 -8 231 34 266 29 26 105 32 149 12z"/>
<path d="M28820 11450 c-30 -11 -56 -19 -57 -20 -2 0 -3 7 -3 15 0 12 -13 15
-60 15 l-60 0 0 -280 0 -280 65 0 65 0 0 210 c0 243 -10 224 120 242 l80 12 0
53 0 53 -47 0 c-27 -1 -73 -9 -103 -20z"/>
<path d="M17830 11180 l0 -280 65 0 65 0 0 280 0 280 -65 0 -65 0 0 -280z"/>
<path d="M23090 11180 l0 -280 65 0 65 0 0 280 0 280 -65 0 -65 0 0 -280z"/>
<path d="M23920 11180 l0 -280 65 0 65 0 0 280 0 280 -65 0 -65 0 0 -280z"/>
<path d="M24620 11454 c0 -4 46 -124 102 -265 l101 -258 -47 -123 c-27 -68
-50 -129 -53 -135 -4 -10 13 -13 65 -13 l70 0 26 68 c14 37 81 216 150 397
l125 330 -61 3 c-34 2 -66 1 -73 -2 -6 -2 -38 -79 -70 -170 -32 -92 -62 -163
-66 -159 -4 5 -34 80 -67 168 l-58 160 -72 3 c-40 2 -72 0 -72 -4z"/>
<path d="M26302 11222 c3 -263 5 -272 71 -312 45 -28 142 -27 209 2 46 20 51
20 60 5 6 -12 23 -17 58 -17 l50 0 0 280 0 280 -60 0 -60 0 0 -202 0 -203 -34
-22 c-29 -18 -96 -43 -118 -43 -5 0 -17 9 -28 20 -19 19 -20 33 -20 235 l0
215 -66 0 -65 0 3 -238z"/>
<path d="M29090 11180 l0 -280 65 0 65 0 0 280 0 280 -65 0 -65 0 0 -280z"/>
<path d="M29790 11454 c0 -5 46 -123 101 -263 l102 -256 -26 -70 c-14 -38 -37
-100 -51 -137 l-26 -68 69 0 69 0 36 93 c19 50 87 229 150 397 l114 305 -60 3
c-34 2 -66 1 -73 -2 -6 -2 -38 -79 -70 -170 -32 -92 -60 -164 -64 -161 -3 4
-33 79 -67 168 l-61 162 -72 3 c-39 2 -71 0 -71 -4z"/>
</g>
</svg>
